<svg xmlns="http://www.w3.org/2000/svg" xmlns:xlink="http://www.w3.org/1999/xlink" version="1.1" x="0px" y="0px" viewBox="0 0 96 120" enable-background="new 0 0 96 96" xml:space="preserve"><g><defs><path id="b" d="M82,84c0,5.523-4.477,10-10,10H24c-5.523,0-10-4.477-10-10V12c0-5.523,4.477-10,10-10h48    c5.523,0,10,4.477,10,10V84z"/></defs><clipPath id="a"><use xlink:href="#b" overflow="visible"/></clipPath><g clip-path="url(#a)"><g><path fill="#000000" d="M80.443,92.919c-1.052,0-2.181-0.04-3.391-0.118c-7.182-0.469-16.316-2.329-25.719-5.237     c-12.649-3.912-35.911-13.441-33.417-21.508c1.634-5.287,12.604-4.683,21.519-3.246l-0.637,3.949     c-12.293-1.982-16.807-0.343-17.061,0.479c-0.475,1.537,7.881,9.424,30.777,16.505c9.113,2.818,17.92,4.617,24.798,5.066     c7.671,0.5,9.805-0.935,9.923-1.316c0.254-0.821-2.548-4.723-13.812-10.026l1.704-3.619c8.169,3.846,17.564,9.541,15.93,14.827     C90.178,91.52,86.694,92.919,80.443,92.919z"/></g><g><path fill="#000000" d="M69.702,83c-0.005,0-0.01,0-0.015,0c-4.131,0-9.974-1.087-16.032-2.961     c-3.466-1.072-20.66-6.734-18.767-12.857l0.102-0.333l32.794-43.889c0.683-0.914,1.723-1.439,2.852-1.439     c1.932,0,3.508,1.506,3.588,3.43l2.278,54.733L76.4,80.027C75.487,82.977,71.151,83,69.702,83z M38.897,68.3     c1.034,1.458,6.282,4.918,15.939,7.905c5.607,1.734,11.159,2.769,14.85,2.769h0c1.56,0,2.377-0.181,2.769-0.315l-2.179-52.354     L38.897,68.3z"/></g><g><path fill="#000000" d="M69.739,72.632c-4.916,0-11.241-1.839-13.046-2.398c-4.272-1.321-8.184-2.981-11.013-4.674     c-1.367-0.818-5.529-3.308-4.582-6.369l3.821,1.182c0.078-0.253,0.034-0.458,0.012-0.51c0.416,0.989,4.768,4.022,12.944,6.55     s13.48,2.483,14.382,1.9c-0.047,0.031-0.2,0.175-0.278,0.428l3.821,1.182C75.17,71.959,72.712,72.632,69.739,72.632z"/></g><g><rect x="47.597" y="65.991" transform="matrix(0.844 0.5364 -0.5364 0.844 45.545 -15.6054)" fill="#000000" width="4" height="8.992"/></g><g><rect x="60.406" y="69.952" transform="matrix(0.9994 0.0337 -0.0337 0.9994 2.5435 -2.0601)" fill="#000000" width="4" height="8.992"/></g></g><g clip-path="url(#a)"><path fill="#000000" d="M43,30h-2c0-5.038-1.962-7-7-7v-2c4.841,0,7-2.159,7-7h2c0,5.038,1.962,7,7,7v2C44.962,23,43,24.962,43,30    z M39.011,21.944c1.338,0.641,2.33,1.612,2.989,2.931c0.641-1.28,1.594-2.234,2.875-2.875c-1.318-0.66-2.29-1.651-2.931-2.989    C41.275,20.294,40.294,21.275,39.011,21.944z"/></g><g clip-path="url(#a)"><path fill="#000000" d="M29,40h-2c0-2.131-0.869-3-3-3v-2c2.243,0,3-0.757,3-3h2c0,2.243,0.757,3,3,3v2C29.757,37,29,37.757,29,40    z M27.421,36.031c0.201,0.164,0.384,0.347,0.548,0.548c0.168-0.215,0.359-0.408,0.571-0.579c-0.199-0.161-0.379-0.341-0.541-0.541    C27.829,35.672,27.636,35.862,27.421,36.031z"/></g></g><g><path fill="#000000" d="M72,96H24c-6.617,0-12-5.383-12-12V12c0-6.617,5.383-12,12-12h48c6.617,0,12,5.383,12,12v72   C84,90.617,78.617,96,72,96z M24,4c-4.411,0-8,3.589-8,8v72c0,4.411,3.589,8,8,8h48c4.411,0,8-3.589,8-8V12c0-4.411-3.589-8-8-8H24   z"/></g></svg>